<?xml version="1.0" standalone="no"?>
<!DOCTYPE svg PUBLIC "-//W3C//DTD SVG 20010904//EN"
 "http://www.w3.org/TR/2001/REC-SVG-20010904/DTD/svg10.dtd">
<svg version="1.0" xmlns="http://www.w3.org/2000/svg"
 width="490.000000pt" height="490.000000pt" viewBox="0 0 490.000000 490.000000"
 preserveAspectRatio="xMidYMid meet">

<g transform="translate(0.000000,490.000000) scale(0.100000,-0.100000)"
fill="#E7DEFC7A" stroke="none">
<path d="M3817 3590 l-439 -5 -29 -33 -29 -32 0 -1076 c0 -956 2 -1078 16
-1105 29 -58 40 -59 521 -59 491 0 491 0 525 70 17 33 18 106 18 1088 0 1144
2 1099 -53 1135 -34 22 -63 23 -530 17z m428 -155 c35 -34 30 -101 -9 -127 -6
-4 -180 -8 -387 -8 -346 0 -377 1 -391 18 -24 26 -30 56 -18 88 20 55 15 54
412 54 l369 0 24 -25z m-9 -223 c37 -24 43 -87 13 -126 l-20 -26 -374 0 c-351
0 -374 1 -396 19 -30 24 -33 89 -5 120 19 21 27 21 395 21 207 0 381 -4 387
-8z m18 -264 c22 -31 20 -81 -3 -109 l-19 -24 -354 -3 c-194 -2 -368 0 -386 3
-57 11 -77 89 -34 138 14 16 46 17 398 17 l383 0 15 -22z m-7 -234 c21 -21 25
-32 20 -65 -10 -73 13 -69 -412 -69 -351 0 -383 1 -397 18 -24 26 -30 56 -18
88 21 55 15 54 413 54 l369 -1 25 -25z m-147 -294 l0 -40 -235 0 -235 0 0 40
0 40 235 0 235 0 0 -40z m-161 -534 c81 -73 45 -201 -60 -213 -58 -6 -94 9
-120 49 -25 41 -22 117 7 149 45 51 125 58 173 15z"/>
<path d="M601 3444 c-17 -14 -35 -42 -41 -62 -8 -25 -10 -301 -8 -869 3 -826
3 -832 24 -860 11 -15 32 -34 45 -40 30 -16 2442 -19 2482 -4 14 5 35 25 48
43 l24 33 3 815 c2 448 0 835 -3 859 -5 32 -16 54 -40 78 l-33 33 -1235 0
-1235 0 -31 -26z m2397 -114 c63 -39 62 -23 62 -735 0 -703 2 -678 -56 -724
l-27 -21 -1122 0 -1122 0 -27 21 c-58 46 -56 21 -56 724 0 712 -1 696 62 735
33 20 47 20 1143 20 1096 0 1110 0 1143 -20z m-1119 -1546 c12 -15 21 -34 21
-44 0 -34 -39 -70 -76 -70 -40 0 -84 37 -84 70 0 33 44 70 84 70 25 0 40 -7
55 -26z"/>
<path d="M1424 1462 l-51 -97 -199 -5 c-123 -3 -207 -9 -219 -17 -33 -19 -58
-51 -52 -68 6 -13 107 -15 922 -15 865 0 915 1 915 18 -1 26 -23 50 -63 67
-28 12 -79 15 -224 15 l-188 0 -60 100 -60 99 -335 0 -335 1 -51 -98z"/>
</g>
</svg>
