<?xml version="1.0" standalone="no"?>
<!DOCTYPE svg PUBLIC "-//W3C//DTD SVG 20010904//EN"
 "http://www.w3.org/TR/2001/REC-SVG-20010904/DTD/svg10.dtd">
<svg version="1.0" xmlns="http://www.w3.org/2000/svg"
 width="512.000000pt" height="512.000000pt" viewBox="0 0 512.000000 512.000000"
 preserveAspectRatio="xMidYMid meet">

<g transform="translate(0.000000,512.000000) scale(0.100000,-0.100000)"
fill="#E7DEFC7A" stroke="none">
<path d="M722 5103 c-18 -9 -43 -30 -55 -47 l-22 -31 -3 -2453 c-2 -2250 -1
-2457 14 -2488 9 -19 31 -44 48 -57 l31 -22 1825 0 1825 0 31 22 c69 49 64
-85 64 1732 l0 1641 -780 0 c-846 0 -806 -3 -860 55 l-25 27 -3 819 -2 819
-1028 0 c-926 0 -1030 -2 -1060 -17z m2087 -2051 c43 -21 70 -57 77 -102 8
-49 -361 -2194 -384 -2234 -29 -49 -67 -71 -126 -71 -42 0 -60 6 -89 28 -75
57 -81 -11 112 1121 209 1218 204 1192 233 1224 48 51 118 65 177 34z m-771
-561 c65 -33 94 -112 67 -177 -11 -27 -97 -120 -268 -292 l-252 -252 258 -258
c203 -204 260 -265 268 -295 28 -104 -69 -201 -177 -177 -32 7 -90 61 -357
327 -175 175 -325 332 -333 350 -19 44 -18 77 5 121 23 44 613 634 656 656 40
21 88 20 133 -3z m1169 8 c37 -14 639 -613 664 -661 23 -44 24 -77 5 -121 -8
-18 -158 -175 -333 -350 -267 -266 -325 -320 -357 -327 -108 -24 -205 73 -177
177 8 30 65 91 268 295 l258 258 -256 257 c-278 279 -290 296 -269 370 25 90
111 135 197 102z"/>
<path d="M3100 4362 l0 -672 647 0 647 0 -35 38 c-34 35 -1123 1166 -1215
1262 l-44 45 0 -673z"/>
</g>
</svg>
