<?xml version="1.0" standalone="no"?>
<!DOCTYPE svg PUBLIC "-//W3C//DTD SVG 20010904//EN"
 "http://www.w3.org/TR/2001/REC-SVG-20010904/DTD/svg10.dtd">
<svg version="1.0" xmlns="http://www.w3.org/2000/svg"
 width="512.000000pt" height="512.000000pt" viewBox="0 0 512.000000 512.000000"
 preserveAspectRatio="xMidYMid meet">

<g transform="translate(0.000000,512.000000) scale(0.100000,-0.100000)"
fill="#E7DEFC7A" stroke="none">
<path d="M1945 4225 c-185 -29 -369 -102 -522 -207 -263 -180 -456 -487 -508
-811 -117 -721 415 -1382 1146 -1424 270 -15 562 71 783 232 l78 58 547 -546
c300 -300 557 -550 572 -556 80 -29 158 63 118 142 -6 12 -255 266 -552 564
l-541 542 24 33 c121 164 194 324 236 518 25 116 26 362 1 477 -84 391 -321
697 -671 869 -220 107 -476 146 -711 109z m275 -195 c123 -13 205 -34 310 -79
297 -128 511 -388 592 -719 30 -122 30 -322 0 -444 -32 -131 -75 -233 -142
-337 -385 -595 -1243 -625 -1670 -60 -235 312 -273 723 -100 1074 111 225 308
408 535 496 123 48 197 64 365 77 8 1 58 -3 110 -8z"/>
</g>
</svg>
